<?xml version="1.0" encoding="utf-8"?><svg viewBox="0 0 134.62 45" xmlns="http://www.w3.org/2000/svg" xmlns:xlink="http://www.w3.org/1999/xlink"><style>:root>svg{display:none}:root>svg:target{display:block}</style><svg stroke-miterlimit="10" style="fill-rule:nonzero;clip-rule:evenodd;stroke-linecap:round;stroke-linejoin:round" viewBox="0 0 134.62 45" xml:space="preserve" id="appmarket" xmlns="http://www.w3.org/2000/svg"><path d="M123.9 0H8.48a14.25 14.25 0 0 0-2.25.2 7.27 7.27 0 0 0-2.14.7 7.22 7.22 0 0 0-1.84 1.35A7 7 0 0 0 .92 4.07a7.36 7.36 0 0 0-.7 2.14 14.25 14.25 0 0 0-.2 2.29v28c.007.754.073 1.507.2 2.25a7.43 7.43 0 0 0 .7 2.15 6.94 6.94 0 0 0 1.33 1.81c.53.539 1.145.988 1.82 1.33a7.59 7.59 0 0 0 2.14.71c.745.116 1.496.183 2.25.2h117.7a16.925 16.925 0 0 0 2.25-.2 7.99 7.99 0 0 0 2.15-.71 7.29 7.29 0 0 0 3.14-3.14 7.411 7.411 0 0 0 .7-2.15 15.43 15.43 0 0 0 .21-2.25v-28a15.57 15.57 0 0 0-.21-2.25 7.346 7.346 0 0 0-.7-2.14 7.185 7.185 0 0 0-1.32-1.86 7.397 7.397 0 0 0-1.82-1.33 7.636 7.636 0 0 0-2.15-.7 14.146 14.146 0 0 0-2.25-.2h-1L123.9 0Z" fill="#b7b7b7"/><path d="M9.48 44.02h-1a13.433 13.433 0 0 1-2.1-.18 6.36 6.36 0 0 1-1.9-.64 5.75 5.75 0 0 1-1.57-1.14A5.94 5.94 0 0 1 1.8 40.5a6.52 6.52 0 0 1-.61-1.87A13 13 0 0 1 1 36.5v-28c.006-.704.07-1.406.19-2.1a6.52 6.52 0 0 1 .61-1.9 6.19 6.19 0 0 1 1.14-1.56c.45-.46.97-.849 1.54-1.15a6.56 6.56 0 0 1 1.9-.61A14.08 14.08 0 0 1 8.48 1h117.64c.7.007 1.399.067 2.09.18.655.11 1.289.318 1.88.62a6.074 6.074 0 0 1 1.59 1.14 6.22 6.22 0 0 1 1.15 1.56c.295.585.497 1.213.6 1.86.115.701.182 1.41.2 2.12V36.5c-.02.697-.083 1.391-.19 2.08a6.695 6.695 0 0 1-.61 1.88 6.204 6.204 0 0 1-1.14 1.56 6.33 6.33 0 0 1-1.58 1.15c-.592.3-1.226.509-1.88.62-.694.116-1.396.176-2.1.18H9.48v.05Z"/><path d="M27.87 22.84a5.54 5.54 0 0 1 2.61-4.67 5.68 5.68 0 0 0-4.49-2.43c-1.89-.2-3.72 1.13-4.69 1.13-.97 0-2.42-1.11-4.02-1.08a6 6 0 0 0-5 3.07c-2.17 3.77-.55 9.3 1.53 12.35 1 1.49 2.26 3.16 3.86 3.1 1.6-.06 2.14-1 4-1 1.86 0 2.41 1 4 1 1.59 0 2.73-1.5 3.73-3a12.32 12.32 0 0 0 1.71-3.48 5.39 5.39 0 0 1-3.24-4.99ZM24.79 13.74a5.48 5.48 0 0 0 1.26-3.93 5.53 5.53 0 0 0-3.57 1.87 5.17 5.17 0 0 0-1.33 3.82 4.61 4.61 0 0 0 3.64-1.76ZM47.59 30.5h-5.32l-1.28 3.78h-2.26l5-14h2.34l5 14h-2.2l-1.28-3.78Zm-4.77-1.74h4.22l-2.08-6.13h-.06l-2.08 6.13ZM62.06 29.22c0 3.16-1.7 5.19-4.25 5.19a3.44 3.44 0 0 1-3.21-1.78v5.05h-2.12V24.12h2v1.7a3.6 3.6 0 0 1 3.25-1.8c2.62 0 4.33 2.04 4.33 5.2Zm-2.15 0c0-2.07-1.07-3.42-2.69-3.42-1.62 0-2.68 1.38-2.68 3.42s1.08 3.42 2.68 3.42 2.69-1.34 2.69-3.42ZM73.27 29.22c0 3.16-1.7 5.19-4.25 5.19a3.44 3.44 0 0 1-3.21-1.78v5.05h-2.14V24.12h2v1.7a3.61 3.61 0 0 1 3.25-1.8c2.64 0 4.35 2.04 4.35 5.2Zm-2.15 0c0-2.07-1.07-3.42-2.69-3.42-1.62 0-2.68 1.38-2.68 3.42s1.08 3.42 2.68 3.42 2.69-1.34 2.69-3.42ZM80.68 30.42c.15 1.38 1.5 2.29 3.34 2.29 1.84 0 3-.91 3-2.16 0-1.08-.77-1.73-2.58-2.18l-1.81-.43c-2.57-.62-3.76-1.82-3.76-3.77 0-2.41 2.1-4.07 5.09-4.07 2.99 0 5 1.66 5 4.07h-2.04c-.13-1.39-1.28-2.23-3-2.23s-2.84.85-2.84 2.09c0 1 .74 1.56 2.54 2l1.54.38c2.86.68 4 1.83 4 3.87 0 2.61-2.08 4.25-5.39 4.25-3.1 0-5.19-1.6-5.32-4.12l2.23.01ZM93.77 21.71v2.41h1.93v1.66h-1.93v5.61c0 .88.38 1.28 1.23 1.28.23-.003.461-.02.69-.05v1.65c-.382.074-.77.108-1.16.1-2.06 0-2.87-.78-2.87-2.75v-5.84h-1.48v-1.66h1.48v-2.41h2.11ZM96.82 29.22c0-3.21 1.89-5.22 4.83-5.22 2.94 0 4.84 2 4.84 5.22 0 3.22-1.87 5.21-4.84 5.21-2.97 0-4.83-2-4.83-5.21Zm7.54 0c0-2.2-1-3.5-2.71-3.5s-2.7 1.31-2.7 3.5 1 3.49 2.7 3.49c1.7 0 2.71-1.29 2.71-3.49ZM108.21 24.12h2v1.74a2.42 2.42 0 0 1 2.45-1.84c.242.002.483.025.72.07v2a2.861 2.861 0 0 0-.94-.13 2.11 2.11 0 0 0-2.18 2.35v6h-2.09l.04-10.19ZM123.06 31.32c-.28 1.85-2.08 3.11-4.39 3.11-3 0-4.8-2-4.8-5.17s1.85-5.26 4.71-5.26 4.59 1.93 4.59 5v.72h-7.19v.12a2.661 2.661 0 0 0 2.74 2.89 2.3 2.3 0 0 0 2.35-1.43l1.99.02Zm-7.07-3h5.09a2.45 2.45 0 0 0-2.5-2.59 2.58 2.58 0 0 0-2.59 2.55v.04ZM41.33 12.66h.9a1.13 1.13 0 0 0 1.25-1.07c0-.62-.46-1-1.25-1a1.21 1.21 0 0 0-1.36 1h-1a2.1 2.1 0 0 1 2.37-2c1.35.07 2.24.81 2.24 1.91a1.56 1.56 0 0 1-1.22 1.54v.08a1.57 1.57 0 0 1 1.5 1.62 2.25 2.25 0 0 1-2.51 2c-1.46 0-2.46-.79-2.52-2h1c.06.64.65 1.06 1.52 1.06s1.44-.47 1.44-1.12c0-.65-.54-1.08-1.47-1.08h-.93l.04-.94ZM45.93 15.1c0-.91.68-1.44 1.89-1.51l1.37-.09v-.44c0-.53-.35-.83-1-.83s-.94.2-1.05.56h-1c.1-.87.92-1.43 2.07-1.43s2 .63 2 1.7v3.44h-1v-.71h-.08a1.69 1.69 0 0 1-1.52.8 1.54 1.54 0 0 1-1.68-1.49Zm3.26-.43v-.42l-1.24.08c-.69 0-1 .28-1 .73 0 .45.39.72.94.72a1.2 1.2 0 0 0 1.3-1.11ZM52.84 12.31v4.19h-1v-5h3.34v.84l-2.34-.03ZM61.23 14c0 1.61-.81 2.62-2.09 2.62a1.67 1.67 0 0 1-1.56-.85h-.1v2.45h-1V11.5h1v.84h.07a1.75 1.75 0 0 1 1.59-.92c1.28-.03 2.09.97 2.09 2.58Zm-1 0c0-1.07-.51-1.72-1.36-1.72-.85 0-1.39.66-1.39 1.72s.53 1.72 1.37 1.72c.84 0 1.36-.65 1.36-1.72h.02ZM62.57 18.35v-.85h.32a.87.87 0 0 0 .92-.71l.07-.25-1.83-5.04h1.09l1.27 4h.07l1.26-4h1.06l-1.89 5.27c-.43 1.24-.91 1.63-1.94 1.63l-.4-.05ZM67.59 15.1h1c.1.44.51.68 1.1.68.59 0 1.07-.3 1.07-.75s-.36-.72-1.07-.72h-.76v-.81h.75c.6 0 .91-.23.91-.66 0-.43-.3-.65-.91-.65-.61 0-1 .24-1 .64h-1a1.77 1.77 0 0 1 2-1.49c1.2 0 1.89.55 1.89 1.4a1 1 0 0 1-.8 1v.08a1.12 1.12 0 0 1 1 1.14c0 1-.82 1.6-2.07 1.6s-2.02-.44-2.11-1.46ZM73.2 16.5v-5h1v3.48h.08l2.32-3.48h1v5h-1V13h-.07l-2.34 3.5h-.99ZM83.05 12.31h-1.57v4.19h-1v-4.19h-1.6v-.81h4.19l-.02.81ZM88.48 15.17a2.07 2.07 0 0 1-2.2 1.46 2.3 2.3 0 0 1-2.34-2.61 2.34 2.34 0 0 1 2.34-2.65c1.41 0 2.26 1 2.26 2.56v.34h-3.62v.06a1.34 1.34 0 0 0 1.35 1.45 1.23 1.23 0 0 0 1.21-.61h1Zm-3.56-1.67h2.56a1.22 1.22 0 0 0-1.24-1.31 1.3 1.3 0 0 0-1.32 1.31ZM92.68 11.5h2.28c1 0 1.58.5 1.58 1.29a1.1 1.1 0 0 1-.86 1.07v.08a1.14 1.14 0 0 1 1.08 1.16c0 .89-.66 1.46-1.77 1.46h-2.31V11.5Zm1 .77v1.31h1c.61 0 .89-.23.89-.66 0-.43-.25-.65-.78-.65h-1.11Zm0 2v1.49h1.19c.59 0 .9-.26.9-.74s-.36-.75-1-.75h-1.09Z" fill="#fff"/></svg><svg viewBox="0 0 134.62 45" xml:space="preserve" id="googmarket" xmlns="http://www.w3.org/2000/svg"><path d="M123.9 0H8.48a14.15 14.15 0 0 0-2.25.2 7.27 7.27 0 0 0-2.14.7 7.4 7.4 0 0 0-1.84 1.35A7 7 0 0 0 .92 4.07a7.27 7.27 0 0 0-.7 2.14A13.53 13.53 0 0 0 0 8.5v28c.007.754.073 1.507.2 2.25a7.43 7.43 0 0 0 .7 2.15A6.94 6.94 0 0 0 4.07 44a7.7 7.7 0 0 0 2.14.71c.745.117 1.496.184 2.25.2h117.7a16.925 16.925 0 0 0 2.25-.2 7.755 7.755 0 0 0 2.15-.71 7.219 7.219 0 0 0 3.14-3.14 7.411 7.411 0 0 0 .7-2.15 15.43 15.43 0 0 0 .21-2.25V8.5c-.02-.754-.09-1.505-.21-2.25a7.278 7.278 0 0 0-.7-2.14 7.151 7.151 0 0 0-1.32-1.86 7.67 7.67 0 0 0-1.82-1.33 7.746 7.746 0 0 0-2.15-.7 14.146 14.146 0 0 0-2.25-.2h-1L123.9 0Z" fill="#a6a6a6"/><path d="M9.48 44h-1a13.433 13.433 0 0 1-2.1-.18 6.462 6.462 0 0 1-1.9-.64 5.69 5.69 0 0 1-1.57-1.14A5.91 5.91 0 0 1 1.8 40.5a6.51 6.51 0 0 1-.61-1.87A12.68 12.68 0 0 1 1 36.5v-28a13.44 13.44 0 0 1 .19-2.1 6.4 6.4 0 0 1 .61-1.9 6.26 6.26 0 0 1 1.14-1.56c.45-.461.97-.85 1.54-1.15a6.7 6.7 0 0 1 1.9-.61A14.75 14.75 0 0 1 8.48 1h117.64c.7.01 1.399.07 2.09.18.654.11 1.288.32 1.88.62.589.29 1.126.676 1.59 1.14.462.458.849.984 1.15 1.56.294.586.496 1.213.6 1.86.117.701.183 1.41.2 2.12v28a16.108 16.108 0 0 1-.19 2.08 6.558 6.558 0 0 1-.61 1.88 6.272 6.272 0 0 1-2.72 2.71c-.592.3-1.226.51-1.88.62-.694.12-1.396.18-2.1.18H9.48V44Z"/><path d="M10.37 10a2 2 0 0 0-.46 1.4v22.16a2 2 0 0 0 .46 1.4l.08.08 12.39-12.39v-.3L10.45 10h-.08Z" fill="#03d1ff"/><path d="m27 26.78-4.13-4.13v-.3L27 18.22l.09.06L32 21.06c1.4.79 1.4 2.09 0 2.89l-4.89 2.78-.11.05Z" fill="#feca01"/><path d="m27.06 26.72-4.22-4.22L10.37 35a1.64 1.64 0 0 0 2.08.07l14.61-8.31" fill="#f93647"/><path d="M27.06 18.28 12.45 10a1.62 1.62 0 0 0-2.08.06L22.84 22.5l4.22-4.22Z" fill="#07f077"/><path d="M68.07 24.25a4.26 4.26 0 1 0 4.27 4.25 4.19 4.19 0 0 0-4.27-4.25Zm0 6.83a2.58 2.58 0 1 1 2.41-2.58 2.46 2.46 0 0 1-2.41 2.58Zm-9.31-6.83A4.26 4.26 0 1 0 63 28.5a4.19 4.19 0 0 0-4.24-4.25Zm0 6.83a2.58 2.58 0 1 1 2.4-2.58 2.46 2.46 0 0 1-2.4 2.58Zm-11.08-5.52v1.8H52a3.77 3.77 0 0 1-1 2.27A4.42 4.42 0 0 1 47.68 31a4.8 4.8 0 1 1 0-9.6 4.64 4.64 0 0 1 3.26 1.29l1.27-1.27a6.3 6.3 0 0 0-4.53-1.82 6.61 6.61 0 1 0 0 13.21 6.07 6.07 0 0 0 4.61-1.85 6 6 0 0 0 1.56-4.23 6.264 6.264 0 0 0-.09-1.12l-6.08-.05ZM93 27a4 4 0 0 0-3.64-2.71 4 4 0 0 0-4 4.25 4.23 4.23 0 0 0 7.76 2.37l-1.45-1a2.41 2.41 0 0 1-2.09 1.17 2.15 2.15 0 0 1-2.06-1.29l5.68-2.35L93 27Zm-5.8 1.42a2.33 2.33 0 0 1 2.22-2.49 1.65 1.65 0 0 1 1.58.87l-3.8 1.62Zm-4.63 4.08h1.87V20h-1.87v12.5Zm-3.06-7.3h-.07a2.94 2.94 0 0 0-2.24-.95 4.26 4.26 0 0 0 0 8.51 2.88 2.88 0 0 0 2.24-1h.07v.61a2.18 2.18 0 0 1-2.28 2.5 2.35 2.35 0 0 1-2.14-1.51l-1.62.67a4 4 0 0 0 3.76 2.52c2.2 0 4-1.29 4-4.43v-7.61h-1.72v.69Zm-2.15 5.88a2.58 2.58 0 0 1 0-5.15 2.39 2.39 0 0 1 2.28 2.59 2.38 2.38 0 0 1-2.28 2.56ZM101.74 20h-4.47v12.5h1.87v-4.74h2.6a3.89 3.89 0 1 0 0-7.76Zm.05 6h-2.65v-4.26h2.65a2.14 2.14 0 1 1 0 4.28V26Zm11.53-1.79a3.48 3.48 0 0 0-3.32 1.93l1.65.69a1.78 1.78 0 0 1 1.71-.91 1.802 1.802 0 0 1 2 1.61v.12a4.18 4.18 0 0 0-1.95-.48c-1.78 0-3.6 1-3.6 2.82a2.89 2.89 0 0 0 3.1 2.75 2.62 2.62 0 0 0 2.38-1.23h.07v1h1.8v-4.82c-.04-2.22-1.7-3.46-3.84-3.46v-.02Zm-.22 6.85c-.61 0-1.46-.31-1.46-1.06 0-1 1.06-1.34 2-1.34a3.362 3.362 0 0 1 1.71.42 2.26 2.26 0 0 1-2.25 2v-.02Zm10.58-6.58-2.14 5.42h-.06l-2.22-5.42h-2l3.33 7.58-1.9 4.21h1.95l5.13-11.79h-2.09Zm-16.8 8h1.86V20h-1.86v12.48ZM42.05 16.77h-.73v-2h.58a2.84 2.84 0 0 0 .77-2.29v-3h4v5.26h.67v2h-.74V15.5h-4.55v1.27Zm1.39-4.3a4 4 0 0 1-.57 2.29h3v-4.52h-2.43v2.23ZM53.35 14.72a3.11 3.11 0 0 1-4.4 0 3 3 0 0 1-.88-2.22 3 3 0 0 1 .93-2.22 3.11 3.11 0 0 1 4.4 0c.584.59.904 1.39.89 2.22a3 3 0 0 1-.94 2.22Zm-3.83-.5a2.22 2.22 0 0 0 1.63.68 2.19 2.19 0 0 0 1.63-.68 2.32 2.32 0 0 0 .67-1.72 2.32 2.32 0 0 0-.67-1.72 2.19 2.19 0 0 0-1.63-.68 2.22 2.22 0 0 0-1.63.68 2.35 2.35 0 0 0-.66 1.72 2.35 2.35 0 0 0 .66 1.72ZM58.12 15.63a3 3 0 0 1-2.22-.89 3 3 0 0 1-.9-2.24 3.06 3.06 0 0 1 3.12-3.13 2.75 2.75 0 0 1 2.2 1l-.53.52a2 2 0 0 0-1.67-.77 2.25 2.25 0 0 0-1.66.67 2.31 2.31 0 0 0-.67 1.73 2.31 2.31 0 0 0 .67 1.73 2.25 2.25 0 0 0 1.66.67A2.36 2.36 0 0 0 60 14l.54.53a3 3 0 0 1-1 .78 3.09 3.09 0 0 1-1.42.32ZM63.62 15.5h-.78v-5.26h-1.67V9.5h4.12v.74h-1.67v5.26ZM70.59 9.5l-2.28 5.06a1.49 1.49 0 0 1-1.39 1.07 1.51 1.51 0 0 1-.6-.13l.2-.71a.83.83 0 0 0 .4.11.72.72 0 0 0 .42-.11.91.91 0 0 0 .27-.38l.22-.48-2-4.43h.9l1.49 3.44 1.46-3.44h.91ZM71.46 15.5v-6h4.34v6H75v-5.26h-2.8v5.26h-.74ZM77.17 15.5v-6h.77v2.57h3V9.5h.78v6h-.78v-2.71h-3v2.71h-.77ZM88 14.72a3.11 3.11 0 0 1-4.4 0 3 3 0 0 1-.89-2.22 3 3 0 0 1 .89-2.22 3.1 3.1 0 0 1 4.39 0c.584.59.904 1.39.89 2.22a3 3 0 0 1-.88 2.22Zm-3.83-.5a2.19 2.19 0 0 0 1.63.68 2.22 2.22 0 0 0 1.63-.68 2.35 2.35 0 0 0 .66-1.72 2.35 2.35 0 0 0-.66-1.72 2.22 2.22 0 0 0-1.63-.68 2.19 2.19 0 0 0-1.63.68 2.32 2.32 0 0 0-.67 1.72 2.32 2.32 0 0 0 .67 1.72ZM92 15.5v-6h2.2a1.8 1.8 0 0 1 1.22.46c.337.294.527.722.52 1.17a1.32 1.32 0 0 1-.82 1.25c.291.093.547.275.73.52.19.242.293.542.29.85.02.477-.18.937-.54 1.25a1.83 1.83 0 0 1-1.28.49L92 15.5Zm.77-3.43h1.4a.87.87 0 0 0 .7-.29.9.9 0 0 0 .27-.63.93.93 0 0 0-.26-.63.85.85 0 0 0-.67-.28H92.8l-.03 1.83Zm0 2.69h1.55a.9.9 0 0 0 .72-.31 1 1 0 0 0 0-1.35 1 1 0 0 0-.75-.31H92.8l-.03 1.97Z" fill="#fff"/></svg></svg>